<svg width="171" height="81" viewBox="0 0 171 81" fill="none" xmlns="http://www.w3.org/2000/svg">
<g clip-path="url(#clip0)">
<path d="M28.4391 6.984H18.2631V36H11.0391V6.984H0.863127V1.176H28.4391V6.984ZM45.2879 6.816V15.768H56.9039V21.216H45.2879V30.36H60.2159V36H38.0399V1.176H60.2159V6.816H45.2879ZM93.8913 27.432C94.2913 27.432 94.6273 27.576 94.8993 27.864L97.7553 30.912C96.3473 32.704 94.5953 34.064 92.4993 34.992C90.4193 35.92 87.9393 36.384 85.0593 36.384C82.4513 36.384 80.1073 35.944 78.0273 35.064C75.9473 34.168 74.1793 32.928 72.7233 31.344C71.2673 29.76 70.1473 27.88 69.3633 25.704C68.5793 23.528 68.1873 21.152 68.1873 18.576C68.1873 16.848 68.3713 15.208 68.7393 13.656C69.1233 12.088 69.6753 10.648 70.3953 9.336C71.1153 8.024 71.9793 6.84 72.9873 5.784C74.0113 4.728 75.1633 3.832 76.4433 3.096C77.7233 2.344 79.1153 1.776 80.6193 1.392C82.1393 0.991998 83.7553 0.791997 85.4673 0.791997C86.7473 0.791997 87.9553 0.903997 89.0913 1.128C90.2433 1.352 91.3153 1.664 92.3073 2.064C93.2993 2.464 94.2113 2.952 95.0433 3.528C95.8913 4.088 96.6513 4.704 97.3233 5.376L94.8993 8.688C94.7553 8.896 94.5713 9.08 94.3473 9.24C94.1233 9.4 93.8193 9.48 93.4353 9.48C93.0513 9.48 92.6593 9.344 92.2593 9.072C91.8753 8.8 91.3953 8.496 90.8193 8.16C90.2593 7.824 89.5473 7.52 88.6833 7.248C87.8353 6.976 86.7553 6.84 85.4433 6.84C83.9873 6.84 82.6513 7.104 81.4353 7.632C80.2193 8.16 79.1713 8.928 78.2913 9.936C77.4273 10.928 76.7553 12.152 76.2753 13.608C75.7953 15.064 75.5553 16.72 75.5553 18.576C75.5553 20.448 75.8113 22.12 76.3233 23.592C76.8513 25.048 77.5633 26.28 78.4593 27.288C79.3713 28.296 80.4273 29.064 81.6273 29.592C82.8433 30.104 84.1393 30.36 85.5153 30.36C86.3313 30.36 87.0673 30.32 87.7233 30.24C88.3953 30.16 89.0113 30.024 89.5713 29.832C90.1473 29.64 90.6833 29.392 91.1793 29.088C91.6913 28.784 92.2033 28.4 92.7153 27.936C92.8913 27.792 93.0753 27.672 93.2673 27.576C93.4593 27.48 93.6673 27.432 93.8913 27.432ZM136.932 1.176V36H129.684V21H114.348V36H107.1V1.176H114.348V15.96H129.684V1.176H136.932Z" fill="#333333"/>
<path d="M170.642 21.0999H161.522V30.8199H156.146V21.0999H147.074V16.2759H156.146V6.57989H161.522V16.2759H170.642V21.0999Z" fill="#F2B705"/>
<path d="M28.4391 50.984H18.2631V80H11.0391V50.984H0.863127V45.176H28.4391V50.984ZM45.2879 50.816V59.768H56.9039V65.216H45.2879V74.36H60.2159V80H38.0399V45.176H60.2159V50.816H45.2879ZM93.8913 71.432C94.2913 71.432 94.6273 71.576 94.8993 71.864L97.7553 74.912C96.3473 76.704 94.5953 78.064 92.4993 78.992C90.4193 79.92 87.9393 80.384 85.0593 80.384C82.4513 80.384 80.1073 79.944 78.0273 79.064C75.9473 78.168 74.1793 76.928 72.7233 75.344C71.2673 73.76 70.1473 71.88 69.3633 69.704C68.5793 67.528 68.1873 65.152 68.1873 62.576C68.1873 60.848 68.3713 59.208 68.7393 57.656C69.1233 56.088 69.6753 54.648 70.3953 53.336C71.1153 52.024 71.9793 50.84 72.9873 49.784C74.0113 48.728 75.1633 47.832 76.4433 47.096C77.7233 46.344 79.1153 45.776 80.6193 45.392C82.1393 44.992 83.7553 44.792 85.4673 44.792C86.7473 44.792 87.9553 44.904 89.0913 45.128C90.2433 45.352 91.3153 45.664 92.3073 46.064C93.2993 46.464 94.2113 46.952 95.0433 47.528C95.8913 48.088 96.6513 48.704 97.3233 49.376L94.8993 52.688C94.7553 52.896 94.5713 53.08 94.3473 53.24C94.1233 53.4 93.8193 53.48 93.4353 53.48C93.0513 53.48 92.6593 53.344 92.2593 53.072C91.8753 52.8 91.3953 52.496 90.8193 52.16C90.2593 51.824 89.5473 51.52 88.6833 51.248C87.8353 50.976 86.7553 50.84 85.4433 50.84C83.9873 50.84 82.6513 51.104 81.4353 51.632C80.2193 52.16 79.1713 52.928 78.2913 53.936C77.4273 54.928 76.7553 56.152 76.2753 57.608C75.7953 59.064 75.5553 60.72 75.5553 62.576C75.5553 64.448 75.8113 66.12 76.3233 67.592C76.8513 69.048 77.5633 70.28 78.4593 71.288C79.3713 72.296 80.4273 73.064 81.6273 73.592C82.8433 74.104 84.1393 74.36 85.5153 74.36C86.3313 74.36 87.0673 74.32 87.7233 74.24C88.3953 74.16 89.0113 74.024 89.5713 73.832C90.1473 73.64 90.6833 73.392 91.1793 73.088C91.6913 72.784 92.2033 72.4 92.7153 71.936C92.8913 71.792 93.0753 71.672 93.2673 71.576C93.4593 71.48 93.6673 71.432 93.8913 71.432ZM136.932 45.176V80H129.684V65H114.348V80H107.1V45.176H114.348V59.96H129.684V45.176H136.932Z" fill="white"/>
<path d="M170.642 65.0999H161.522V74.8199H156.146V65.0999H147.074V60.2759H156.146V50.5799H161.522V60.2759H170.642V65.0999Z" fill="#F2B705"/>
</g>
<defs>
<clipPath id="clip0">
<rect width="171" height="81" fill="white"/>
</clipPath>
</defs>
</svg>
