<svg width="201" height="30" viewBox="0 0 201 30" fill="none" xmlns="http://www.w3.org/2000/svg">
<g clip-path="url(#clip0)">
<path d="M36.977 25.0246L36.9771 25.0247C37.2141 25.2717 37.2067 25.6644 36.9597 25.9021L36.9595 25.9023C36.8393 26.0175 36.6846 26.0753 36.5296 26.0753C36.3671 26.0753 36.2041 26.0122 36.0821 25.8848L36.977 25.0246ZM36.977 25.0246L30.0855 17.8577C31.8353 16.0512 32.9148 13.5907 32.9148 10.8824C32.9148 5.35012 28.4147 0.85 22.8824 0.85C17.3501 0.85 12.85 5.35012 12.85 10.8824C12.85 16.4147 17.3501 20.9148 22.8824 20.9148C25.2608 20.9148 27.4478 20.082 29.1686 18.6947L36.0818 25.8845L36.977 25.0246ZM22.8824 19.6736C18.0349 19.6736 14.0912 15.73 14.0912 10.8824C14.0912 6.03487 18.0349 2.09118 22.8824 2.09118C27.73 2.09118 31.6736 6.03487 31.6736 10.8824C31.6736 15.7299 27.7295 19.6736 22.8824 19.6736Z" fill="white" stroke="white" stroke-width="0.3"/>
</g>
<g clip-path="url(#clip1)">
<path d="M173.16 22.8165C171.754 22.8165 170.609 23.9606 170.609 25.3669C170.609 26.7733 171.754 27.9174 173.16 27.9174C174.566 27.9174 175.71 26.7733 175.71 25.3669C175.71 23.9606 174.566 22.8165 173.16 22.8165ZM173.16 26.4932C172.539 26.4932 172.033 25.9879 172.033 25.3668C172.033 24.7457 172.539 24.2404 173.16 24.2404C173.781 24.2404 174.286 24.7458 174.286 25.3668C174.286 25.988 173.781 26.4932 173.16 26.4932Z" fill="white"/>
<path d="M182.106 22.8165C180.7 22.8165 179.556 23.9606 179.556 25.3669C179.556 26.7733 180.7 27.9174 182.106 27.9174C183.512 27.9174 184.657 26.7733 184.657 25.3669C184.657 23.9606 183.512 22.8165 182.106 22.8165ZM182.106 26.4932C181.485 26.4932 180.98 25.9879 180.98 25.3668C180.98 24.7457 181.485 24.2404 182.106 24.2404C182.727 24.2404 183.233 24.7458 183.233 25.3668C183.233 25.988 182.727 26.4932 182.106 26.4932Z" fill="white"/>
<path d="M182.734 9.38849H172.53C172.137 9.38849 171.818 9.70726 171.818 10.1005C171.818 10.4938 172.137 10.8126 172.53 10.8126H182.734C183.127 10.8126 183.446 10.4938 183.446 10.1005C183.446 9.70721 183.127 9.38849 182.734 9.38849Z" fill="white"/>
<path d="M182.179 13.086H173.086C172.692 13.086 172.374 13.4048 172.374 13.798C172.374 14.1913 172.692 14.5101 173.086 14.5101H182.179C182.572 14.5101 182.891 14.1913 182.891 13.798C182.891 13.4048 182.572 13.086 182.179 13.086Z" fill="white"/>
<path d="M189.68 6.21599C189.408 5.88272 189.006 5.69161 188.576 5.69161H166.397L165.949 3.51723C165.855 3.06365 165.546 2.6828 165.121 2.49832L161.996 1.14178C161.635 0.985051 161.216 1.15061 161.059 1.5113C160.902 1.8721 161.068 2.29147 161.429 2.44797L164.554 3.80457L167.999 20.5284C168.135 21.187 168.721 21.665 169.394 21.665H186.452C186.845 21.665 187.164 21.3463 187.164 20.953C187.164 20.5597 186.845 20.241 186.452 20.241H169.394L168.975 18.2067H186.584C187.257 18.2067 187.843 17.7286 187.979 17.07L189.97 7.40284C190.057 6.98189 189.951 6.54921 189.68 6.21599ZM186.584 16.7827H168.682L166.69 7.11561L188.576 7.11567L186.584 16.7827Z" fill="white"/>
</g>
<path d="M90 15C90 6.72927 83.2707 0 75 0C66.7293 0 60 6.72927 60 15C60 19.3685 61.8785 23.3062 64.8687 26.0498L64.8545 26.0624L65.3411 26.4725C65.3727 26.4993 65.4071 26.5211 65.4387 26.5473C65.6973 26.7616 65.9651 26.9651 66.2378 27.162C66.3262 27.2258 66.4145 27.2896 66.5045 27.3518C66.7958 27.5525 67.0947 27.7429 67.4002 27.9235C67.4667 27.9627 67.5338 28.0009 67.6009 28.0391C67.9353 28.2295 68.2767 28.4089 68.6264 28.5736C68.652 28.5856 68.6782 28.5965 68.7038 28.6085C69.8433 29.1382 71.0596 29.5271 72.3316 29.7567C72.3649 29.7627 72.3982 29.7687 72.432 29.7747C72.8269 29.8429 73.2262 29.8975 73.6304 29.934C73.6795 29.9384 73.7285 29.9411 73.7782 29.9455C74.1807 29.9787 74.5876 30 75 30C75.4085 30 75.8116 29.9787 76.212 29.9465C76.2627 29.9422 76.3135 29.9395 76.3642 29.9351C76.7651 29.8985 77.1611 29.8456 77.5522 29.7785C77.586 29.7725 77.6204 29.7665 77.6542 29.76C78.9071 29.5353 80.106 29.1551 81.2307 28.6391C81.2722 28.62 81.3142 28.602 81.3556 28.5824C81.6922 28.4242 82.0211 28.2535 82.3435 28.0718C82.4236 28.0265 82.5033 27.9807 82.5829 27.9338C82.8764 27.7609 83.1649 27.5804 83.4453 27.3884C83.5462 27.3196 83.6449 27.2471 83.7447 27.1751C83.9842 27.0027 84.2193 26.8249 84.4478 26.6389C84.4985 26.598 84.5531 26.5625 84.6027 26.5205L85.1018 26.1038L85.0871 26.0913C88.1035 23.3465 90 19.3909 90 15ZM61.0909 15C61.0909 7.33036 67.3304 1.09091 75 1.09091C82.6696 1.09091 88.9091 7.33036 88.9091 15C88.9091 19.1329 87.0955 22.8485 84.2242 25.398C84.0638 25.2873 83.9024 25.188 83.7371 25.1051L79.1187 22.7962C78.7042 22.5889 78.4467 22.1722 78.4467 21.7091V20.0962C78.5536 19.9642 78.6665 19.8147 78.7833 19.6505C79.3811 18.8062 79.8605 17.8669 80.2102 16.8562C80.9013 16.5278 81.3475 15.8395 81.3475 15.0622V13.1285C81.3475 12.6556 81.174 12.1969 80.8636 11.8364V9.29073C80.892 9.00764 80.9924 7.41 79.8365 6.09218C78.8313 4.94455 77.2042 4.36364 75 4.36364C72.7958 4.36364 71.1687 4.94455 70.1635 6.09164C69.0076 7.40945 69.108 9.00709 69.1364 9.29018V11.8358C68.8265 12.1964 68.6525 12.6551 68.6525 13.128V15.0616C68.6525 15.6622 68.922 16.2224 69.3835 16.6004C69.8253 18.3311 70.7345 19.6413 71.0705 20.0853V21.6638C71.0705 22.1089 70.8278 22.518 70.4367 22.7318L66.1238 25.0844C65.9864 25.1591 65.85 25.2464 65.7136 25.344C62.8778 22.7956 61.0909 19.1029 61.0909 15ZM83.1595 26.2538C82.9685 26.3924 82.7744 26.5265 82.5775 26.6547C82.4869 26.7136 82.3969 26.7725 82.3047 26.8298C82.0473 26.9891 81.7855 27.1407 81.5182 27.2825C81.4593 27.3136 81.3998 27.3431 81.3404 27.3736C80.7262 27.6884 80.0907 27.9589 79.4378 28.1787C79.4149 28.1864 79.392 28.1945 79.3685 28.2022C79.0265 28.3156 78.6802 28.4165 78.33 28.5033C78.3289 28.5033 78.3278 28.5038 78.3267 28.5038C77.9733 28.5911 77.6155 28.6636 77.2555 28.7231C77.2456 28.7247 77.2358 28.7269 77.226 28.7285C76.8873 28.7836 76.5458 28.8235 76.2033 28.8535C76.1427 28.8589 76.0822 28.8627 76.0211 28.8671C75.6824 28.8927 75.342 28.9091 75 28.9091C74.6542 28.9091 74.3095 28.8922 73.9664 28.8665C73.9069 28.8622 73.8475 28.8584 73.7885 28.8529C73.4427 28.8224 73.0985 28.7815 72.7576 28.7258C72.7424 28.7231 72.7271 28.7204 72.7118 28.7176C71.9907 28.5971 71.2811 28.4198 70.59 28.188C70.5687 28.1809 70.5469 28.1733 70.5256 28.1662C70.1825 28.0495 69.8433 27.9202 69.51 27.7773C69.5078 27.7762 69.5051 27.7751 69.5029 27.774C69.1876 27.6382 68.8784 27.4876 68.5729 27.3289C68.5331 27.3082 68.4927 27.2885 68.4535 27.2673C68.1747 27.1184 67.902 26.9575 67.6331 26.7895C67.5535 26.7393 67.4744 26.6885 67.3958 26.6373C67.1482 26.4753 66.9038 26.3067 66.666 26.1284C66.6415 26.1098 66.618 26.0902 66.5935 26.0716C66.6109 26.0618 66.6284 26.052 66.6458 26.0422L70.9587 23.6896C71.7005 23.2849 72.1615 22.5087 72.1615 21.6638L72.1609 19.6991L72.0355 19.5475C72.0235 19.5338 70.8442 18.0993 70.3985 16.1569L70.3489 15.9409L70.1629 15.8204C69.9005 15.6507 69.7435 15.3671 69.7435 15.0611V13.1275C69.7435 12.8738 69.8509 12.6376 70.0473 12.4604L70.2273 12.2978V9.25964L70.2224 9.18818C70.2207 9.17509 70.0598 7.86327 70.9838 6.81C71.7725 5.91109 73.1242 5.45455 75 5.45455C76.8687 5.45455 78.216 5.90727 79.0069 6.79964C79.9298 7.842 79.7787 9.17836 79.7776 9.18927L79.7727 12.2989L79.9527 12.4615C80.1485 12.6382 80.2565 12.8749 80.2565 13.1285V15.0622C80.2565 15.4511 79.992 15.804 79.6124 15.9213L79.3413 16.0047L79.254 16.2747C78.9322 17.2745 78.474 18.198 77.8925 19.0195C77.7496 19.2213 77.6105 19.4002 77.4911 19.5371L77.3558 19.6915V21.7091C77.3558 22.5884 77.8445 23.3793 78.6311 23.772L83.2495 26.0809C83.2789 26.0956 83.3078 26.1109 83.3367 26.1262C83.2784 26.1704 83.2184 26.2113 83.1595 26.2538Z" fill="#696973"/>
<rect x="110.5" y="0.5" width="29" height="29" rx="14.5" stroke="#696973"/>
<path d="M128.358 4.96464L128.343 4.95H128.323H118.058H118.008V5V24V24.05H118.058H132.942H132.992V24V9.6189V9.59819L132.977 9.58354L128.358 4.96464ZM127.875 10.1167H132.258V23.3167H118.742V5.68333H127.825V10.0667V10.1167H127.875ZM128.558 9.38333V6.20181L131.74 9.38333H128.558Z" fill="#696973" stroke="#696973" stroke-width="0.1"/>
<path d="M129.458 11.6H124.392C124.189 11.6 124.025 11.7639 124.025 11.9667C124.025 12.1695 124.189 12.3334 124.392 12.3334H129.458C129.661 12.3334 129.825 12.1695 129.825 11.9667C129.825 11.7639 129.661 11.6 129.458 11.6Z" fill="#696973" stroke="#696973" stroke-width="0.1"/>
<path d="M123.67 11.303L123.67 11.303L122.087 12.5696C122.087 12.5696 122.087 12.5696 122.087 12.5697L122.087 12.5697L122.056 12.5306C121.998 12.5772 121.928 12.6 121.858 12.6C121.777 12.6 121.696 12.5686 121.634 12.5072L121.001 11.8739C120.877 11.75 120.877 11.5499 121.001 11.4261C121.125 11.3023 121.325 11.3023 121.449 11.4261L123.67 11.303ZM123.67 11.303C123.829 11.1762 123.854 10.9456 123.728 10.7875C123.601 10.629 123.37 10.6039 123.212 10.7303C123.212 10.7303 123.212 10.7303 123.212 10.7303L121.885 11.792L123.67 11.303Z" fill="#696973" stroke="#696973" stroke-width="0.1"/>
<path d="M129.458 15.0834H124.392C124.189 15.0834 124.025 15.2473 124.025 15.45C124.025 15.6528 124.189 15.8167 124.392 15.8167H129.458C129.661 15.8167 129.825 15.6528 129.825 15.45C129.825 15.2473 129.661 15.0834 129.458 15.0834Z" fill="#696973" stroke="#696973" stroke-width="0.1"/>
<path d="M123.67 14.7863L123.67 14.7863L122.087 16.0529C122.087 16.053 122.087 16.053 122.087 16.053L122.087 16.053L122.056 16.014C121.998 16.0605 121.928 16.0833 121.858 16.0833C121.777 16.0833 121.696 16.052 121.634 15.9905L121.001 15.3572C120.877 15.2334 120.877 15.0332 121.001 14.9094C121.125 14.7856 121.325 14.7856 121.449 14.9094L123.67 14.7863ZM123.67 14.7863C123.829 14.6595 123.854 14.4289 123.728 14.2709C123.601 14.1124 123.37 14.0872 123.212 14.2136C123.212 14.2136 123.212 14.2136 123.212 14.2136L121.885 15.2753L123.67 14.7863Z" fill="#696973" stroke="#696973" stroke-width="0.1"/>
<path d="M129.458 18.5666H124.392C124.189 18.5666 124.025 18.7305 124.025 18.9333C124.025 19.1361 124.189 19.3 124.392 19.3H129.458C129.661 19.3 129.825 19.1361 129.825 18.9333C129.825 18.7305 129.661 18.5666 129.458 18.5666Z" fill="#696973" stroke="#696973" stroke-width="0.1"/>
<path d="M123.67 18.2697L123.67 18.2697L122.087 19.5363L122.087 19.5363L122.056 19.4973C121.998 19.5438 121.928 19.5666 121.858 19.5666C121.777 19.5666 121.696 19.5353 121.634 19.4739L121.001 18.8405C120.877 18.7167 120.877 18.5166 121.001 18.3928C121.125 18.2689 121.325 18.2689 121.449 18.3928L123.67 18.2697ZM123.67 18.2697C123.829 18.1428 123.854 17.9122 123.728 17.7542C123.601 17.5957 123.37 17.5705 123.212 17.697C123.212 17.697 123.212 17.697 123.212 17.697L121.885 18.7586L123.67 18.2697Z" fill="#696973" stroke="#696973" stroke-width="0.1"/>
<defs>
<clipPath id="clip0">
<rect width="26" height="26" fill="white" transform="translate(12)"/>
</clipPath>
<clipPath id="clip1">
<rect width="29" height="29" fill="white" transform="translate(161)"/>
</clipPath>
</defs>
</svg>
