<svg width="134" height="64" viewBox="0 0 134 64" fill="none" xmlns="http://www.w3.org/2000/svg">
<g clip-path="url(#clip0)">
<path d="M22.2855 5.47282H14.3113V28.2105H8.65042V5.47282H0.67627V0.92152H22.2855V5.47282ZM35.4887 5.34117V12.3562H44.5913V16.6254H35.4887V23.7909H47.1866V28.2105H29.8089V0.92152H47.1866V5.34117H35.4887ZM73.5755 21.4964C73.889 21.4964 74.1523 21.6092 74.3654 21.8349L76.6035 24.2234C75.5001 25.6277 74.1272 26.6934 72.4847 27.4206C70.8548 28.1478 68.9114 28.5114 66.6546 28.5114C64.6109 28.5114 62.774 28.1666 61.1441 27.477C59.5142 26.7749 58.1287 25.8032 56.9877 24.5619C55.8468 23.3207 54.9691 21.8475 54.3548 20.1423C53.7404 18.4371 53.4332 16.5752 53.4332 14.5566C53.4332 13.2025 53.5774 11.9174 53.8658 10.7012C54.1667 9.47244 54.5993 8.34402 55.1635 7.31591C55.7277 6.28779 56.4047 5.35998 57.1946 4.53247C57.9971 3.70496 58.8998 3.00283 59.9028 2.42608C60.9059 1.8368 61.9967 1.3917 63.1753 1.09078C64.3664 0.777331 65.6327 0.620605 66.9743 0.620605C67.9773 0.620605 68.9239 0.708372 69.8141 0.883906C70.7169 1.05944 71.5569 1.30393 72.3343 1.61738C73.1116 1.93083 73.8263 2.31324 74.4783 2.76461C75.1428 3.20344 75.7383 3.68615 76.2649 4.21275L74.3654 6.80812C74.2526 6.97111 74.1084 7.1153 73.9329 7.24068C73.7573 7.36606 73.5191 7.42875 73.2182 7.42875C72.9173 7.42875 72.6101 7.32218 72.2967 7.10903C71.9957 6.89588 71.6196 6.65766 71.1682 6.39436C70.7294 6.13106 70.1715 5.89284 69.4944 5.6797C68.8299 5.46655 67.9836 5.35998 66.9555 5.35998C65.8145 5.35998 64.7676 5.56685 63.8147 5.98061C62.8618 6.39436 62.0406 6.99619 61.351 7.78608C60.6739 8.56344 60.1473 9.5226 59.7712 10.6636C59.395 11.8045 59.207 13.1022 59.207 14.5566C59.207 16.0236 59.4076 17.3338 59.8088 18.4873C60.2226 19.6282 60.7805 20.5937 61.4826 21.3836C62.1973 22.1735 63.0248 22.7753 63.9651 23.189C64.918 23.5902 65.9336 23.7909 67.0119 23.7909C67.6513 23.7909 68.2281 23.7595 68.7421 23.6968C69.2687 23.6341 69.7514 23.5276 70.1903 23.3771C70.6416 23.2266 71.0617 23.0323 71.4503 22.7941C71.8516 22.5559 72.2528 22.2549 72.654 21.8913C72.7919 21.7785 72.9361 21.6845 73.0866 21.6092C73.237 21.534 73.4 21.4964 73.5755 21.4964ZM107.303 0.92152V28.2105H101.624V16.4561H89.6059V28.2105H83.9262V0.92152H89.6059V12.5066H101.624V0.92152H107.303Z" fill="#333333"/>
<path d="M133.719 16.5344H126.573V24.1512H122.36V16.5344H115.251V12.7542H122.36V5.15613H126.573V12.7542H133.719V16.5344Z" fill="#F2B705"/>
<path d="M22.2855 39.9524H14.3113V62.69H8.65042V39.9524H0.67627V35.4011H22.2855V39.9524ZM35.4887 39.8207V46.8357H44.5913V51.1049H35.4887V58.2704H47.1866V62.69H29.8089V35.4011H47.1866V39.8207H35.4887ZM73.5755 55.9759C73.889 55.9759 74.1523 56.0888 74.3654 56.3145L76.6035 58.703C75.5001 60.1072 74.1272 61.1729 72.4847 61.9002C70.8548 62.6274 68.9114 62.991 66.6546 62.991C64.6109 62.991 62.774 62.6462 61.1441 61.9566C59.5142 61.2544 58.1287 60.2828 56.9877 59.0415C55.8468 57.8002 54.9691 56.327 54.3548 54.6218C53.7404 52.9167 53.4332 51.0548 53.4332 49.0362C53.4332 47.6821 53.5774 46.3969 53.8658 45.1807C54.1667 43.952 54.5993 42.8236 55.1635 41.7955C55.7277 40.7673 56.4047 39.8395 57.1946 39.012C57.9971 38.1845 58.8998 37.4824 59.9028 36.9056C60.9059 36.3163 61.9967 35.8712 63.1753 35.5703C64.3664 35.2569 65.6327 35.1002 66.9743 35.1002C67.9773 35.1002 68.9239 35.1879 69.8141 35.3635C70.7169 35.539 71.5569 35.7835 72.3343 36.0969C73.1116 36.4104 73.8263 36.7928 74.4783 37.2442C75.1428 37.683 75.7383 38.1657 76.2649 38.6923L74.3654 41.2877C74.2526 41.4507 74.1084 41.5948 73.9329 41.7202C73.7573 41.8456 73.5191 41.9083 73.2182 41.9083C72.9173 41.9083 72.6101 41.8017 72.2967 41.5886C71.9957 41.3754 71.6196 41.1372 71.1682 40.8739C70.7294 40.6106 70.1715 40.3724 69.4944 40.1592C68.8299 39.9461 67.9836 39.8395 66.9555 39.8395C65.8145 39.8395 64.7676 40.0464 63.8147 40.4602C62.8618 40.8739 62.0406 41.4757 61.351 42.2656C60.6739 43.043 60.1473 44.0021 59.7712 45.1431C59.395 46.2841 59.207 47.5817 59.207 49.0362C59.207 50.5031 59.4076 51.8133 59.8088 52.9668C60.2226 54.1078 60.7805 55.0732 61.4826 55.8631C62.1973 56.653 63.0248 57.2548 63.9651 57.6686C64.918 58.0698 65.9336 58.2704 67.0119 58.2704C67.6513 58.2704 68.2281 58.2391 68.7421 58.1764C69.2687 58.1137 69.7514 58.0071 70.1903 57.8566C70.6416 57.7062 71.0617 57.5118 71.4503 57.2736C71.8516 57.0354 72.2528 56.7345 72.654 56.3709C72.7919 56.258 72.9361 56.164 73.0866 56.0888C73.237 56.0136 73.4 55.9759 73.5755 55.9759ZM107.303 35.4011V62.69H101.624V50.9357H89.6059V62.69H83.9262V35.4011H89.6059V46.9862H101.624V35.4011H107.303Z" fill="white"/>
<path d="M133.719 51.0139H126.573V58.6308H122.36V51.0139H115.251V47.2337H122.36V39.6357H126.573V47.2337H133.719V51.0139Z" fill="#F2B705"/>
</g>
<defs>
<clipPath id="clip0">
<rect width="134" height="63.4737" fill="white"/>
</clipPath>
</defs>
</svg>
